<svg width="993" height="299" viewBox="0 0 993 299" fill="none" xmlns="http://www.w3.org/2000/svg">
<path d="M0 85.8734C0 79.9264 5.12552 75.1054 11.4482 75.1054H64.1097C70.4323 75.1054 75.5579 79.9264 75.5579 85.8734V271.084C75.5579 277.031 70.4323 281.852 64.1097 281.852H11.4482C5.12551 281.852 0 277.031 0 271.084V85.8734Z" fill="black"/>
<path d="M208.598 232.568C214.921 232.592 220.026 237.433 220 243.38L219.849 278.381C219.824 284.328 214.677 289.129 208.355 289.105L11.4481 288.355C5.12546 288.331 0.0207435 283.491 0.046341 277.544L0.196997 242.543C0.222595 236.596 5.36882 231.794 11.6914 231.818L208.598 232.568Z" fill="black"/>
<path d="M285 85.1054C285 79.5825 289.477 75.1054 295 75.1054H443C448.523 75.1054 453 79.5825 453 85.1054V125.105C453 130.628 448.523 135.105 443 135.105H295C289.477 135.105 285 130.628 285 125.105V85.1054Z" fill="black"/>
<path d="M389 127.105C389 121.583 393.477 117.105 399 117.105H443C448.523 117.105 453 121.583 453 127.105V242.105C453 247.628 448.523 252.105 443 252.105H399C393.477 252.105 389 247.628 389 242.105V127.105Z" fill="black"/>
<path d="M285 242.105C285 236.583 289.477 232.105 295 232.105H443C448.523 232.105 453 236.583 453 242.105V279.105C453 284.628 448.523 289.105 443 289.105H295C289.477 289.105 285 284.628 285 279.105V242.105Z" fill="black"/>
<path d="M587 74.1054C587 68.5825 591.477 64.1054 597 64.1054H727C732.523 64.1054 737 68.5825 737 74.1054V102.105C737 107.628 732.523 112.105 727 112.105H597C591.477 112.105 587 107.628 587 102.105V74.1054Z" fill="black"/>
<path d="M690 105.105H737V184.105H690V105.105Z" fill="black"/>
<path d="M587 172.105C587 166.583 591.477 162.105 597 162.105H727C732.523 162.105 737 166.583 737 172.105V199.105C737 204.628 732.523 209.105 727 209.105H597C591.477 209.105 587 204.628 587 199.105V172.105Z" fill="black"/>
<path d="M587 184.105H635V280.105H587V184.105Z" fill="black"/>
<path d="M587 257.105C587 251.583 591.477 247.105 597 247.105H727C732.523 247.105 737 251.583 737 257.105V279.105C737 284.628 732.523 289.105 727 289.105H597C591.477 289.105 587 284.628 587 279.105V257.105Z" fill="black"/>
<path d="M344 28.1054C344 26.4485 345.343 25.1054 347 25.1054H434C435.657 25.1054 437 26.4485 437 28.1054V44.1054C437 45.7622 435.657 47.1054 434 47.1054H347C345.343 47.1054 344 45.7622 344 44.1054V28.1054Z" fill="black"/>
<path d="M352.002 16.1777C351.461 13.9325 353.553 11.9436 355.768 12.5976L368.227 16.2763C370.441 16.9303 371.118 19.7367 369.444 21.3279L360.029 30.278C358.355 31.8691 355.586 31.0516 355.045 28.8065L352.002 16.1777Z" fill="black"/>
<path d="M384.461 1.67835C385.478 -0.39481 388.358 -0.589046 389.645 1.32873L396.882 12.1162C398.169 14.034 396.897 16.6254 394.593 16.7808L381.632 17.6549C379.328 17.8103 377.72 15.4131 378.737 13.3399L384.461 1.67835Z" fill="black"/>
<path d="M422.467 14.3696C424.729 13.9043 426.646 16.0622 425.918 18.2538L421.823 30.5818C421.095 32.7734 418.267 33.355 416.733 31.6287L408.105 21.918C406.571 20.1917 407.481 17.4522 409.743 16.9869L422.467 14.3696Z" fill="black"/>
<path d="M814 73.1054C814 67.5825 818.477 63.1054 824 63.1054H951C956.523 63.1054 961 67.5825 961 73.1054V102.105C961 107.628 956.523 112.105 951 112.105H824C818.477 112.105 814 107.628 814 102.105V73.1054Z" fill="black"/>
<path d="M936 73.1054C936 67.5825 940.477 63.1054 946 63.1054H983C988.523 63.1054 993 67.5825 993 73.1054V288.105C993 293.628 988.523 298.105 983 298.105H946C940.477 298.105 936 293.628 936 288.105V73.1054Z" fill="black"/>
<path d="M814 169.105C814 163.583 818.477 159.105 824 159.105H971C976.523 159.105 981 163.583 981 169.105V199.105C981 204.628 976.523 209.105 971 209.105H824C818.477 209.105 814 204.628 814 199.105V169.105Z" fill="black"/>
<path d="M814 258.105C814 252.583 818.477 248.105 824 248.105H983C988.523 248.105 993 252.583 993 258.105V288.105C993 293.628 988.523 298.105 983 298.105H824C818.477 298.105 814 293.628 814 288.105V258.105Z" fill="black"/>
</svg>
